<?xml version="1.0" encoding="UTF-8" standalone="no"?><!-- Generator: Gravit.io --><svg xmlns="http://www.w3.org/2000/svg" xmlns:xlink="http://www.w3.org/1999/xlink" style="isolation:isolate" viewBox="0 0 500 372.609" width="500pt" height="372.609pt"><defs><clipPath id="_clipPath_KAkKAcjtfeI02MZRbqW0Qtpq4snCjECb"><rect width="500" height="372.609"/></clipPath></defs><g clip-path="url(#_clipPath_KAkKAcjtfeI02MZRbqW0Qtpq4snCjECb)"><clipPath id="_clipPath_NL72Hf8wP9OoS89ZfOrTV8JW9pPXHjAr"><path d=" M 0 0 L 0 372.609 L 500 372.609 L 500 0 L 0 0 Z " fill="rgb(255,255,255)"/></clipPath><g clip-path="url(#_clipPath_NL72Hf8wP9OoS89ZfOrTV8JW9pPXHjAr)"><path d=" M 500 327.696 L 0 327.696 L 0 327.446 L 500 327.446 L 500 327.696 Z " fill="rgb(229,229,228)"/><path d=" M 73.667 337.219 L 52.459 337.219 L 52.459 336.969 L 73.667 336.969 L 73.667 337.219 Z " fill="rgb(229,229,228)"/><path d=" M 256.111 334.506 L 171.14 334.506 L 171.14 334.256 L 256.111 334.256 L 256.111 334.506 Z " fill="rgb(229,229,228)"/><path d=" M 105.774 346.505 L 67.667 346.505 L 67.667 346.255 L 105.774 346.255 L 105.774 346.505 Z " fill="rgb(229,229,228)"/><path d=" M 449.901 344.825 L 406.708 344.825 L 406.708 344.575 L 449.901 344.575 L 449.901 344.825 Z " fill="rgb(229,229,228)"/><path d=" M 403.444 344.825 L 391.471 344.825 L 391.471 344.575 L 403.444 344.575 L 403.444 344.825 Z " fill="rgb(229,229,228)"/><path d=" M 370.889 340.603 L 347.889 340.603 L 347.889 340.353 L 370.889 340.353 L 370.889 340.603 Z " fill="rgb(229,229,228)"/><path d=" M 336.333 340.603 L 287.889 340.603 L 287.889 340.353 L 336.333 340.353 L 336.333 340.603 Z " fill="rgb(229,229,228)"/><path d=" M 43.915 0.25 C 40.905 0.25 38.457 2.698 38.457 5.708 L 38.457 277.139 C 38.457 280.149 40.905 282.597 43.915 282.597 L 237.014 282.597 C 240.023 282.597 242.471 280.149 242.471 277.139 L 242.471 5.708 C 242.471 2.698 240.023 0.25 237.014 0.25 L 43.915 0.25 Z  M 237.014 282.847 L 43.915 282.847 C 40.768 282.847 38.207 280.287 38.207 277.139 L 38.207 5.708 C 38.207 2.561 40.768 0 43.915 0 L 237.014 0 C 240.16 0 242.721 2.561 242.721 5.708 L 242.721 277.139 C 242.721 280.287 240.16 282.847 237.014 282.847 Z " fill="rgb(229,229,228)"/><path d=" M 260.212 0.25 C 257.203 0.25 254.755 2.698 254.755 5.708 L 254.755 277.139 C 254.755 280.149 257.203 282.597 260.212 282.597 L 453.31 282.597 C 456.32 282.597 458.769 280.149 458.769 277.139 L 458.769 5.708 C 458.769 2.698 456.32 0.25 453.31 0.25 L 260.212 0.25 Z  M 453.31 282.847 L 260.212 282.847 C 257.065 282.847 254.505 280.287 254.505 277.139 L 254.505 5.708 C 254.505 2.561 257.065 0 260.212 0 L 453.31 0 C 456.458 0 459.019 2.561 459.019 5.708 L 459.019 277.139 C 459.019 280.287 456.458 282.847 453.31 282.847 Z " fill="rgb(229,229,228)"/><path d=" M 331.351 221.673 C 327.851 221.673 324.352 221.218 320.95 220.307 L 323.661 210.192 C 326.181 210.87 328.773 211.209 331.365 211.209 C 337.051 211.209 342.738 209.578 347.669 206.318 C 347.488 210.358 347.315 214.449 347.158 218.439 C 342.123 220.595 336.737 221.673 331.351 221.673 Z  M 368.718 166.917 L 363.606 166.917 L 363.606 166.917 L 357.15 166.917 L 357.15 166.917 L 368.718 166.917 L 368.718 166.917 Z " fill="rgb(237,237,235)"/><path d=" M 348.86 157.611 C 347.396 156.536 345.853 155.612 344.257 154.841 C 342.843 152.84 341.513 150.818 340.356 148.813 C 339.244 146.868 338.285 144.829 337.924 143.22 C 337.802 142.685 337.782 142.213 337.809 141.949 C 341.382 142.533 344.85 143.596 348.12 145.1 C 348.276 148.921 348.517 153.082 348.86 157.611 Z  M 316.979 155.589 C 317.44 152.398 317.264 149.108 316.461 145.921 L 316.461 144.284 C 317.78 143.758 319.128 143.301 320.498 142.917 C 321.618 146.332 322.118 149.886 321.99 153.395 C 320.27 153.965 318.591 154.696 316.979 155.589 Z  M 324.936 152.586 C 324.948 149.112 324.404 145.613 323.309 142.236 C 324.832 141.925 326.377 141.701 327.936 141.568 C 327.929 143.347 328.348 144.807 328.792 146.081 C 329.647 148.384 330.751 150.226 331.942 151.896 C 331.742 151.892 331.54 151.89 331.34 151.89 C 329.192 151.89 327.043 152.122 324.936 152.586 Z " fill="rgb(245,245,244)"/><path d=" M 320.948 220.307 C 319.406 219.893 317.909 219.393 316.461 218.813 L 316.461 207.214 C 318.744 208.54 321.167 209.533 323.66 210.192 L 320.948 220.307 Z " fill="rgb(230,230,229)"/><path d=" M 337.52 115.737 C 329.667 105.56 324.994 92.803 324.994 78.959 C 324.994 56.658 337.122 37.173 355.135 26.769 L 362.996 40.389 C 349.67 48.061 340.716 62.459 340.716 78.959 C 340.716 88.515 343.728 97.37 348.853 104.625 C 347.321 105.399 345.741 106.53 344.182 108.037 C 341.696 110.441 339.41 113.21 337.52 115.737 Z " fill="rgb(237,237,235)"/><path d=" M 389.072 139.098 C 389.221 135.244 389.468 131.149 389.861 126.909 C 391.912 130.483 393.526 132.87 393.526 132.87 L 393.528 132.868 C 393.529 132.87 393.53 132.87 393.53 132.87 L 393.937 132.595 L 395.846 131.321 C 396.977 133.408 398.107 135.492 399.223 137.575 C 395.905 138.367 392.509 138.879 389.072 139.098 Z  M 409.153 134.27 C 407.809 131.218 406.412 128.21 404.968 125.23 L 407.721 123.392 L 407.721 123.392 C 407.721 123.392 406.942 121.352 405.653 118.561 C 419.992 111.16 429.797 96.201 429.797 78.958 L 429.797 78.958 L 445.519 78.958 L 445.519 78.958 C 445.519 94.932 439.151 110.276 427.863 121.563 C 422.437 126.989 416.073 131.279 409.153 134.27 Z " fill="rgb(245,245,244)"/><path d=" M 445.519 78.958 L 445.519 78.958 L 445.519 78.958 Z  M 445.519 78.958 L 429.797 78.958 L 429.797 78.958 C 429.797 54.344 409.85 34.418 385.257 34.418 C 377.144 34.418 369.535 36.583 362.998 40.388 L 355.137 26.767 C 364.52 21.352 374.818 18.782 385.005 18.782 C 405.899 18.782 426.327 29.592 437.448 48.837 C 442.724 57.981 445.519 68.385 445.519 78.958 Z " fill="rgb(230,230,229)"/><path d=" M 307.653 327.444 L 280.937 327.444 L 280.937 282.847 L 307.653 282.847 L 307.653 327.444 Z  M 307.653 282.597 L 280.937 282.597 L 280.937 270.994 L 307.653 270.994 L 307.653 282.597 Z " fill="rgb(246,246,245)"/><path d=" M 307.653 282.847 L 280.937 282.847 L 280.937 282.597 L 307.653 282.597 L 307.653 282.847 Z " fill="rgb(233,234,233)"/><path d=" M 275.482 327.444 L 248.766 327.444 L 248.766 300.146 L 261.854 300.146 C 268.667 300.146 274.196 295.422 275.482 289.088 L 275.482 327.444 Z " fill="rgb(236,236,235)"/><path d=" M 243.311 327.444 L 216.595 327.444 L 216.595 302.534 L 243.311 302.534 L 243.311 327.444 Z " fill="rgb(243,242,241)"/><path d=" M 407.892 327.444 L 404.968 327.444 C 403.63 316.754 401.826 302.201 400.13 288.022 L 407.892 288.022 L 407.892 327.444 Z  M 390.196 327.444 L 381.175 327.444 L 381.175 288.022 L 382.147 288.022 C 385.028 302.276 388.003 316.788 390.196 327.444 Z " fill="rgb(246,246,245)"/><path d=" M 375.721 327.444 L 364.783 327.444 C 365.172 318.944 365.678 308.001 366.214 296.74 L 375.721 296.74 L 375.721 327.444 Z  M 350.519 327.444 L 349.005 327.444 L 349.005 302.772 C 349.539 311.879 350.074 320.483 350.519 327.444 Z " fill="rgb(236,236,235)"/><path d=" M 343.55 327.444 L 316.834 327.444 L 316.834 282.847 L 343.55 282.847 L 343.55 327.444 Z  M 343.55 282.597 L 316.834 282.597 L 316.834 261.309 L 343.55 261.309 L 343.55 282.597 Z " fill="rgb(243,242,241)"/><path d=" M 343.55 282.847 L 316.834 282.847 L 316.834 282.597 L 343.55 282.597 L 343.55 282.847 Z " fill="rgb(231,232,231)"/><path d=" M 207.414 327.444 L 180.698 327.444 L 180.698 300.146 L 207.414 300.146 L 207.414 327.444 Z " fill="rgb(246,246,245)"/><path d=" M 175.243 327.444 L 148.527 327.444 L 148.527 300.146 L 175.243 300.146 L 175.243 327.444 Z " fill="rgb(236,236,235)"/><path d=" M 143.073 327.444 L 116.356 327.444 L 116.356 282.847 L 128.859 282.847 L 128.992 285.531 C 129.368 293.148 135.583 299.452 143.073 300.093 L 143.073 327.444 Z  M 128.847 282.597 L 116.356 282.597 L 116.356 275.568 L 128.499 275.568 L 128.847 282.597 Z " fill="rgb(243,242,241)"/><path d=" M 128.859 282.847 L 116.356 282.847 L 116.356 282.597 L 128.847 282.597 L 128.859 282.847 Z " fill="rgb(231,232,231)"/><path d=" M 281.996 46.444 L 262.961 46.444 C 261.372 42.801 258.395 39.852 254.755 38.286 L 254.755 17.697 L 275.182 17.697 C 278.93 17.697 281.996 20.763 281.996 24.51 L 281.996 46.444 Z  M 118.153 46.444 L 56.111 46.444 L 56.111 24.51 C 56.111 20.763 59.177 17.697 62.925 17.697 L 242.471 17.697 L 242.471 37.062 L 131.331 37.062 C 125.134 37.062 119.999 40.97 118.153 46.444 Z  M 111.204 26.418 C 108.087 26.418 105.552 28.954 105.552 32.07 C 105.552 35.187 108.087 37.723 111.204 37.723 C 114.321 37.723 116.856 35.187 116.856 32.07 C 116.856 28.954 114.321 26.418 111.204 26.418 Z  M 92.948 26.418 C 89.832 26.418 87.296 28.954 87.296 32.07 C 87.296 35.187 89.832 37.723 92.948 37.723 C 96.064 37.723 98.6 35.187 98.6 32.07 C 98.6 28.954 96.064 26.418 92.948 26.418 Z  M 74.692 26.418 C 71.576 26.418 69.04 28.954 69.04 32.07 C 69.04 35.187 71.576 37.723 74.692 37.723 C 77.809 37.723 80.344 35.187 80.344 32.07 C 80.344 28.954 77.809 26.418 74.692 26.418 Z  M 254.505 38.181 C 252.744 37.46 250.834 37.062 248.856 37.062 L 246.479 37.062 C 246.459 37.062 246.439 37.062 246.419 37.062 L 242.721 37.062 L 242.721 17.697 L 254.505 17.697 L 254.505 38.181 Z " fill="rgb(241,240,239)"/><path d=" M 242.721 37.062 L 242.471 37.062 L 242.471 17.697 L 242.721 17.697 L 242.721 37.062 Z " fill="rgb(231,232,231)"/><path d=" M 254.755 38.286 C 254.672 38.25 254.589 38.215 254.505 38.181 L 254.505 17.697 L 254.755 17.697 L 254.755 38.286 Z " fill="rgb(231,232,231)"/><path d=" M 111.204 36.723 C 108.639 36.723 106.552 34.636 106.552 32.07 C 106.552 29.505 108.639 27.418 111.204 27.418 C 113.77 27.418 115.856 29.505 115.856 32.07 C 115.856 34.636 113.77 36.723 111.204 36.723 Z  M 92.948 36.723 C 90.383 36.723 88.296 34.636 88.296 32.07 C 88.296 29.505 90.383 27.418 92.948 27.418 C 95.513 27.418 97.6 29.505 97.6 32.07 C 97.6 34.636 95.513 36.723 92.948 36.723 Z  M 74.692 36.723 C 72.127 36.723 70.04 34.636 70.04 32.07 C 70.04 29.505 72.127 27.418 74.692 27.418 C 77.257 27.418 79.344 29.505 79.344 32.07 C 79.344 34.636 77.257 36.723 74.692 36.723 Z " fill="rgb(241,240,239)"/><path d=" M 111.204 37.723 C 108.087 37.723 105.552 35.187 105.552 32.07 C 105.552 28.954 108.087 26.418 111.204 26.418 C 114.321 26.418 116.856 28.954 116.856 32.07 C 116.856 35.187 114.321 37.723 111.204 37.723 Z  M 111.204 27.418 C 108.639 27.418 106.552 29.505 106.552 32.07 C 106.552 34.636 108.639 36.723 111.204 36.723 C 113.77 36.723 115.856 34.636 115.856 32.07 C 115.856 29.505 113.77 27.418 111.204 27.418 Z " fill="rgb(254,254,254)"/><path d=" M 92.948 37.723 C 89.832 37.723 87.296 35.187 87.296 32.07 C 87.296 28.954 89.832 26.418 92.948 26.418 C 96.064 26.418 98.6 28.954 98.6 32.07 C 98.6 35.187 96.064 37.723 92.948 37.723 Z  M 92.948 27.418 C 90.383 27.418 88.296 29.505 88.296 32.07 C 88.296 34.636 90.383 36.723 92.948 36.723 C 95.513 36.723 97.6 34.636 97.6 32.07 C 97.6 29.505 95.513 27.418 92.948 27.418 Z " fill="rgb(254,254,254)"/><path d=" M 74.692 37.723 C 71.576 37.723 69.04 35.187 69.04 32.07 C 69.04 28.954 71.576 26.418 74.692 26.418 C 77.809 26.418 80.344 28.954 80.344 32.07 C 80.344 35.187 77.809 37.723 74.692 37.723 Z  M 74.692 27.418 C 72.127 27.418 70.04 29.505 70.04 32.07 C 70.04 34.636 72.127 36.723 74.692 36.723 C 77.257 36.723 79.344 34.636 79.344 32.07 C 79.344 29.505 77.257 27.418 74.692 27.418 Z " fill="rgb(254,254,254)"/><path d=" M 86.703 194.168 L 62.925 194.168 C 59.177 194.168 56.111 191.102 56.111 187.354 L 56.111 46.444 L 118.153 46.444 C 117.605 48.071 117.347 49.836 117.438 51.677 L 118.369 70.529 L 97.389 70.529 C 93.642 70.529 90.576 73.595 90.576 77.343 L 90.576 99.277 L 117.96 99.277 L 90.576 99.277 L 90.576 127.134 L 86.807 127.134 L 87.148 134.046 L 87.932 149.913 L 84.796 149.913 L 83.404 152.801 C 82.129 153.189 80.914 153.706 79.772 154.338 L 79.772 154.338 L 76.596 153.381 L 70.721 159.562 L 71.831 162.688 L 71.831 162.689 C 71.263 163.862 70.807 165.102 70.48 166.397 L 67.667 167.933 L 68.099 176.674 L 71.063 178.209 L 71.064 178.21 C 71.518 179.505 72.097 180.746 72.781 181.917 L 72.782 181.918 L 71.98 185.045 L 78.466 191.225 L 81.548 190.268 C 82.752 190.9 84.017 191.416 85.33 191.804 L 86.703 194.168 Z  M 89.819 188.1 C 81.614 187.471 74.841 180.64 74.429 172.304 C 74.017 163.966 80.115 157.134 88.258 156.505 L 88.368 158.731 C 81.461 159.357 76.295 165.205 76.645 172.303 C 76.996 179.401 82.74 185.249 89.709 185.875 L 89.819 188.1 Z  M 281.996 67.177 L 264.959 67.177 L 264.193 51.677 C 264.102 49.836 263.67 48.071 262.961 46.444 L 281.996 46.444 L 281.996 67.177 Z " fill="rgb(230,230,229)"/><path d=" M 316.461 99.277 L 300.338 99.277 L 298.917 70.529 L 309.647 70.529 C 313.394 70.529 316.461 73.595 316.461 77.343 L 316.461 99.277 Z  M 117.96 99.277 L 90.576 99.277 L 90.576 77.343 C 90.576 73.595 93.642 70.529 97.389 70.529 L 118.369 70.529 L 119.262 88.601 C 118.22 88.981 117.501 89.988 117.56 91.175 L 117.96 99.277 Z  M 109.157 79.251 C 106.04 79.251 103.504 81.786 103.504 84.903 C 103.504 88.02 106.04 90.555 109.157 90.555 C 112.273 90.555 114.809 88.02 114.809 84.903 C 114.809 81.786 112.273 79.251 109.157 79.251 Z  M 109.157 89.555 C 106.591 89.555 104.504 87.468 104.504 84.903 C 104.504 82.338 106.591 80.251 109.157 80.251 C 111.722 80.251 113.809 82.338 113.809 84.903 C 113.809 87.468 111.722 89.555 109.157 89.555 Z " fill="rgb(245,245,244)"/><path d=" M 109.157 90.555 C 106.04 90.555 103.504 88.02 103.504 84.903 C 103.504 81.786 106.04 79.251 109.157 79.251 C 112.273 79.251 114.809 81.786 114.809 84.903 C 114.809 88.02 112.273 90.555 109.157 90.555 Z  M 109.157 80.251 C 106.591 80.251 104.504 82.338 104.504 84.903 C 104.504 87.468 106.591 89.555 109.157 89.555 C 111.722 89.555 113.809 87.468 113.809 84.903 C 113.809 82.338 111.722 80.251 109.157 80.251 Z " fill="rgb(233,234,233)"/><path d=" M 309.647 247.001 L 273.843 247.001 L 273.228 234.537 L 307.02 234.537 L 305.934 212.559 C 309.047 215.132 312.581 217.26 316.461 218.813 L 316.461 240.187 C 316.461 243.934 313.394 247.001 309.647 247.001 Z  M 92.633 245.054 C 91.365 243.815 90.576 242.089 90.576 240.187 L 90.576 203.417 L 92.633 245.054 Z  M 316.461 207.214 C 314.283 205.951 312.232 204.385 310.367 202.521 C 308.202 200.355 306.441 197.939 305.085 195.364 L 304.403 181.569 C 308.868 180.034 313.01 177.465 316.461 173.86 L 316.461 207.214 Z  M 304.25 178.465 L 303.994 173.29 C 306.496 172.102 308.814 170.452 310.821 168.34 C 313.622 165.394 315.496 161.888 316.461 158.166 L 316.461 169.236 C 315.818 170.093 315.12 170.921 314.365 171.716 C 311.45 174.782 307.989 177.031 304.25 178.465 Z  M 316.044 144.454 C 314.759 140.395 312.435 136.558 309.094 133.374 C 306.877 131.262 304.397 129.612 301.778 128.424 L 301.522 123.249 C 305.402 124.682 309.086 126.932 312.304 129.998 C 313.879 131.499 315.266 133.123 316.461 134.836 L 316.461 144.284 C 316.321 144.34 316.182 144.396 316.044 144.454 Z  M 316.461 130.215 C 315.771 129.429 315.041 128.667 314.269 127.931 C 310.444 124.286 306.018 121.692 301.369 120.144 L 300.338 99.277 L 316.461 99.277 L 316.461 130.215 Z  M 119.387 127.134 L 90.576 127.134 L 90.576 99.277 L 117.96 99.277 L 119.311 126.61 C 119.32 126.789 119.346 126.964 119.387 127.134 Z " fill="rgb(233,234,233)"/><path d=" M 316.461 145.921 C 316.337 145.429 316.198 144.94 316.044 144.454 C 316.182 144.396 316.321 144.34 316.461 144.284 L 316.461 145.921 Z " fill="rgb(232,231,230)"/><path d=" M 316.461 218.813 C 312.581 217.26 309.047 215.132 305.934 212.559 L 305.085 195.364 C 306.441 197.939 308.202 200.355 310.367 202.521 C 312.232 204.385 314.283 205.951 316.461 207.214 L 316.461 218.813 Z " fill="rgb(226,226,225)"/><path d=" M 443.889 361.285 C 443.889 367.539 357.082 372.609 250 372.609 C 142.918 372.609 56.111 367.539 56.111 361.285 C 56.111 355.032 142.918 349.962 250 349.962 C 357.082 349.962 443.889 355.032 443.889 361.285 Z " fill="rgb(239,238,237)"/><path d=" M 266.519 108.411 C 267.946 108.411 269.056 107.244 268.985 105.817 L 268.254 91.026 C 268.184 89.599 266.959 88.431 265.532 88.431 L 263.572 88.431 L 261.756 51.677 C 261.359 43.639 254.457 37.062 246.419 37.062 L 131.331 37.062 C 123.292 37.062 117.04 43.639 117.438 51.677 L 119.262 88.601 C 118.22 88.981 117.501 89.988 117.56 91.175 L 119.311 126.61 C 119.369 127.797 120.188 128.805 121.267 129.185 L 128.992 285.531 C 129.389 293.57 136.291 300.146 144.329 300.146 L 259.417 300.146 C 267.456 300.146 273.708 293.57 273.31 285.531 L 265.865 134.828 L 267.824 134.828 C 269.251 134.828 270.361 133.66 270.29 132.234 L 269.559 117.442 C 269.489 116.015 268.264 114.848 266.837 114.848 L 264.878 114.848 L 264.559 108.411 L 266.519 108.411 Z " fill="rgb(66,120,187)"/><path d=" M 146.766 300.146 L 261.854 300.146 C 269.892 300.146 276.144 293.57 275.747 285.531 L 264.193 51.677 C 263.796 43.639 256.894 37.062 248.856 37.062 L 133.767 37.062 C 125.729 37.062 119.477 43.639 119.874 51.677 L 131.428 285.531 C 131.825 293.57 138.727 300.146 146.766 300.146 Z " fill="rgb(66,120,187)"/><path d=" M 261.854 300.146 L 207.414 300.146 L 180.698 300.146 L 175.243 300.146 L 148.527 300.146 L 146.766 300.146 C 138.727 300.146 131.825 293.57 131.428 285.531 L 130.726 271.313 L 134.626 271.313 L 134.931 277.483 C 134.993 278.741 136.063 279.761 137.321 279.761 L 269.284 279.761 C 270.542 279.761 271.511 278.741 271.449 277.483 L 269.327 234.537 L 273.228 234.537 L 275.747 285.531 C 275.759 285.774 275.765 286.016 275.765 286.257 C 275.764 293.962 269.649 300.146 261.854 300.146 Z  M 127.503 127.134 L 123.602 127.134 L 119.874 51.677 C 119.862 51.434 119.856 51.192 119.856 50.951 C 119.857 43.247 125.972 37.062 133.767 37.062 L 248.856 37.062 C 256.894 37.062 263.796 43.639 264.193 51.677 L 264.959 67.177 L 261.058 67.177 L 260.715 60.222 C 260.653 58.964 259.583 57.944 258.324 57.944 L 126.362 57.944 C 125.104 57.944 124.135 58.964 124.197 60.222 L 127.503 127.134 Z  M 177.769 43.819 C 176.778 43.819 176.007 44.63 176.056 45.621 L 176.056 45.622 C 176.105 46.613 176.956 47.423 177.948 47.423 L 205.7 47.423 C 206.691 47.423 207.462 46.613 207.413 45.622 L 207.413 45.621 C 207.364 44.63 206.513 43.819 205.522 43.819 L 177.769 43.819 Z " fill="rgb(121,167,216)"/><path d=" M 137.321 279.761 L 269.284 279.761 C 270.542 279.761 271.511 278.741 271.449 277.483 L 260.715 60.222 C 260.653 58.964 259.583 57.944 258.324 57.944 L 126.362 57.944 C 125.104 57.944 124.135 58.964 124.197 60.222 L 134.931 277.483 C 134.993 278.741 136.063 279.761 137.321 279.761 Z " fill="rgb(254,254,254)"/><path d=" M 205.7 47.423 L 177.948 47.423 C 176.956 47.423 176.105 46.613 176.056 45.622 L 176.056 45.621 C 176.007 44.63 176.778 43.819 177.769 43.819 L 205.522 43.819 C 206.513 43.819 207.364 44.63 207.413 45.621 L 207.413 45.622 C 207.462 46.613 206.691 47.423 205.7 47.423 Z " fill="rgb(82,132,195)"/><path d=" M 307.02 234.537 L 273.228 234.537 L 270.203 173.317 C 270.361 173.474 270.521 173.629 270.682 173.783 C 276.576 179.399 283.895 182.524 291.267 183.158 C 291.768 194.599 297.197 205.337 305.934 212.559 L 307.02 234.537 Z  M 305.085 195.364 C 302.945 191.301 301.813 186.845 301.69 182.366 C 302.605 182.142 303.511 181.876 304.403 181.569 L 305.085 195.364 Z  M 291.246 180.235 C 284.583 179.633 277.976 176.793 272.647 171.716 C 271.688 170.802 270.8 169.844 269.982 168.847 L 269.491 158.912 C 270.845 162.356 272.971 165.591 275.856 168.34 C 280.383 172.654 286.013 175.04 291.674 175.499 C 291.435 177.082 291.293 178.662 291.246 180.235 Z  M 301.764 179.288 C 301.903 177.461 302.21 175.644 302.687 173.862 C 303.128 173.685 303.564 173.494 303.994 173.29 L 304.25 178.465 C 303.434 178.778 302.604 179.053 301.764 179.288 Z " fill="rgb(118,164,214)"/><path d=" M 305.934 212.559 C 297.197 205.337 291.768 194.599 291.267 183.158 C 292.205 183.239 293.144 183.279 294.082 183.279 C 294.563 183.279 295.045 183.268 295.525 183.247 L 295.249 180.328 C 294.813 180.348 294.377 180.357 293.939 180.357 C 293.042 180.357 292.144 180.317 291.246 180.235 C 291.293 178.662 291.435 177.082 291.674 175.499 C 292.349 175.554 293.023 175.581 293.696 175.581 C 296.779 175.581 299.834 175.008 302.687 173.862 C 302.21 175.644 301.903 177.461 301.764 179.288 C 299.644 179.882 297.457 180.229 295.249 180.328 L 295.525 183.247 C 297.607 183.154 299.673 182.86 301.69 182.366 C 301.813 186.845 302.945 191.301 305.085 195.364 L 305.934 212.559 Z " fill="rgb(115,161,213)"/><path d=" M 268.695 142.802 L 268.299 134.783 C 269.489 134.558 270.353 133.497 270.29 132.234 L 270.2 130.412 C 270.327 130.273 270.456 130.135 270.586 129.998 C 276.062 124.238 283.467 121.358 291.016 121.358 C 293.907 121.358 296.82 121.781 299.653 122.626 L 299.653 122.626 C 300.28 122.813 300.904 123.021 301.522 123.249 L 301.778 128.424 C 298.41 126.896 294.813 126.132 291.253 126.132 C 284.926 126.132 278.717 128.546 274.128 133.374 C 271.515 136.122 269.709 139.357 268.695 142.802 Z " fill="rgb(118,164,214)"/><path d=" M 300.338 99.277 L 300.337 99.277 L 298.917 70.529 L 300.338 99.277 Z " fill="rgb(122,166,216)"/><path d=" M 270.001 126.38 L 269.559 117.442 C 269.497 116.178 268.529 115.118 267.316 114.892 L 267.163 111.781 L 300.955 111.781 L 300.337 99.277 L 300.338 99.277 L 301.369 120.144 C 301.035 120.033 300.701 119.928 300.365 119.828 L 300.365 119.828 C 297.251 118.899 294.052 118.435 290.874 118.435 C 283.284 118.435 275.824 121.083 270.001 126.38 Z " fill="rgb(118,164,214)"/><path d=" M 268.299 134.783 L 268.204 132.866 C 268.816 132.019 269.481 131.2 270.2 130.412 L 270.29 132.234 C 270.353 133.497 269.489 134.558 268.299 134.783 Z  M 267.984 128.396 L 267.316 114.892 C 268.529 115.118 269.497 116.178 269.559 117.442 L 270.001 126.38 C 269.458 126.874 268.93 127.391 268.417 127.931 C 268.27 128.085 268.126 128.24 267.984 128.396 Z " fill="rgb(66,120,187)"/><path d=" M 273.228 234.537 L 269.327 234.537 L 266.059 168.387 C 267.262 170.123 268.644 171.775 270.203 173.317 L 273.228 234.537 Z  M 269.982 168.847 C 268.255 166.743 266.842 164.47 265.748 162.095 L 264.638 139.618 C 265.497 137.243 266.685 134.97 268.204 132.866 L 268.695 142.802 C 267.162 148.012 267.443 153.701 269.491 158.912 L 269.982 168.847 Z  M 264.327 133.327 L 263.262 111.781 L 267.163 111.781 L 267.984 128.396 C 266.577 129.938 265.359 131.591 264.327 133.327 Z " fill="rgb(88,136,197)"/><path d=" M 269.327 234.537 L 246.616 234.537 C 247.748 232.732 248.609 230.769 249.179 228.712 L 247.158 228.063 C 246.513 230.391 245.459 232.587 244.029 234.537 L 239.391 234.537 C 244.766 229.361 246.16 220.91 242.258 213.698 C 238.871 207.436 232.407 203.802 225.871 203.802 C 223.25 203.802 220.616 204.387 218.165 205.622 C 209.605 209.935 206.514 220.543 211.26 229.316 C 212.356 231.343 213.775 233.095 215.415 234.537 L 210.777 234.537 C 209.836 233.405 208.992 232.165 208.266 230.824 C 204.171 223.254 204.967 214.539 209.584 208.349 L 207.883 207.045 C 202.808 213.85 201.933 223.428 206.434 231.747 C 206.964 232.727 207.551 233.657 208.19 234.537 L 191.638 234.537 L 183.369 67.177 L 261.058 67.177 L 183.369 67.177 L 185.573 111.781 L 263.262 111.781 L 264.327 133.327 C 261.092 138.769 259.69 145.032 260.077 151.274 L 260.077 151.274 C 260.448 157.239 262.454 163.186 266.059 168.387 L 269.327 234.537 Z  M 232.157 199.223 L 231.671 201.231 C 237.242 202.836 242.255 206.651 245.251 212.19 C 248.036 217.337 248.558 223.012 247.158 228.063 L 249.179 228.712 C 250.718 223.16 250.144 216.923 247.083 211.267 C 243.791 205.18 238.279 200.986 232.157 199.223 Z  M 225.594 198.29 C 222.156 198.29 218.703 199.057 215.489 200.676 C 212.383 202.241 209.825 204.441 207.883 207.045 L 209.584 208.349 C 211.352 205.979 213.679 203.979 216.505 202.554 C 219.43 201.081 222.572 200.383 225.701 200.383 C 227.717 200.383 229.728 200.673 231.671 201.231 L 232.157 199.223 C 230.021 198.609 227.811 198.29 225.594 198.29 Z  M 265.748 162.095 C 264.148 158.623 263.228 154.932 262.997 151.235 L 262.997 151.235 C 262.752 147.285 263.294 143.327 264.638 139.618 L 265.748 162.095 Z " fill="rgb(124,168,217)"/><path d=" M 293.4 188.777 L 293.24 188.747 L 293.11 188.657 L 293.02 188.527 L 292.98 188.367 C 292.98 188.257 293.03 188.147 293.11 188.067 C 293.26 187.917 293.54 187.917 293.69 188.067 C 293.77 188.147 293.82 188.257 293.82 188.367 L 293.78 188.527 L 293.69 188.657 L 293.56 188.747 L 293.4 188.777 Z " fill="rgb(254,254,254)"/><path d=" M 293.14 191.557 C 293.13 191.327 293.31 191.127 293.54 191.117 C 293.76 191.107 293.96 191.277 293.97 191.507 C 293.98 191.737 293.81 191.937 293.58 191.947 L 293.56 191.947 C 293.34 191.947 293.15 191.777 293.14 191.557 Z  M 293.3 194.717 C 293.29 194.487 293.46 194.297 293.69 194.287 C 293.92 194.277 294.12 194.447 294.13 194.677 C 294.14 194.907 293.96 195.097 293.73 195.117 L 293.71 195.117 C 293.49 195.117 293.31 194.937 293.3 194.717 Z  M 293.46 197.887 C 293.44 197.657 293.62 197.457 293.85 197.447 C 294.08 197.437 294.27 197.617 294.28 197.847 C 294.29 198.077 294.12 198.267 293.89 198.277 L 293.87 198.277 C 293.65 198.277 293.47 198.107 293.46 197.887 Z  M 293.61 201.047 C 293.6 200.827 293.78 200.627 294.01 200.617 C 294.23 200.607 294.43 200.777 294.44 201.007 C 294.45 201.237 294.28 201.437 294.05 201.447 L 294.03 201.447 C 293.81 201.447 293.62 201.277 293.61 201.047 Z  M 293.77 204.217 C 293.76 203.987 293.93 203.797 294.16 203.787 C 294.39 203.767 294.58 203.947 294.6 204.177 C 294.61 204.407 294.43 204.597 294.2 204.617 L 294.18 204.617 C 293.96 204.617 293.78 204.437 293.77 204.217 Z  M 293.92 207.387 C 293.91 207.157 294.09 206.957 294.32 206.947 C 294.55 206.937 294.74 207.117 294.75 207.347 C 294.76 207.577 294.59 207.767 294.36 207.777 L 294.34 207.777 C 294.12 207.777 293.94 207.607 293.92 207.387 Z  M 294.08 210.547 C 294.07 210.327 294.25 210.127 294.47 210.117 C 294.7 210.107 294.9 210.277 294.91 210.507 C 294.92 210.737 294.74 210.937 294.52 210.947 L 294.5 210.947 C 294.28 210.947 294.09 210.777 294.08 210.547 Z  M 294.24 213.717 C 294.23 213.487 294.4 213.297 294.63 213.287 C 294.86 213.267 295.05 213.447 295.06 213.677 C 295.08 213.907 294.9 214.097 294.67 214.117 L 294.65 214.117 C 294.43 214.117 294.25 213.937 294.24 213.717 Z  M 294.39 216.887 C 294.38 216.657 294.56 216.457 294.79 216.447 C 295.02 216.437 295.21 216.617 295.22 216.847 C 295.23 217.077 295.06 217.267 294.83 217.277 L 294.81 217.277 C 294.59 217.277 294.4 217.107 294.39 216.887 Z  M 294.55 220.047 C 294.54 219.827 294.71 219.627 294.94 219.617 C 295.17 219.607 295.37 219.777 295.38 220.007 C 295.39 220.237 295.21 220.437 294.98 220.447 L 294.96 220.447 C 294.75 220.447 294.56 220.277 294.55 220.047 Z " fill="rgb(254,254,254)"/><path d=" M 295.12 223.617 C 295.01 223.617 294.9 223.567 294.83 223.487 C 294.75 223.417 294.71 223.307 294.71 223.197 L 294.74 223.037 L 294.83 222.907 L 294.96 222.817 C 295.06 222.777 295.18 222.777 295.28 222.817 L 295.42 222.907 L 295.5 223.037 L 295.54 223.197 C 295.54 223.307 295.49 223.417 295.42 223.487 L 295.28 223.577 L 295.12 223.617 Z " fill="rgb(254,254,254)"/><path d=" M 257.79 223.197 C 257.79 222.967 257.98 222.787 258.21 222.787 C 258.44 222.787 258.62 222.967 258.62 223.197 C 258.62 223.427 258.44 223.617 258.21 223.617 C 257.98 223.617 257.79 223.427 257.79 223.197 Z  M 261.15 223.197 C 261.15 222.967 261.33 222.787 261.56 222.787 C 261.79 222.787 261.98 222.967 261.98 223.197 C 261.98 223.427 261.79 223.617 261.56 223.617 C 261.33 223.617 261.15 223.427 261.15 223.197 Z  M 264.5 223.197 C 264.5 222.967 264.69 222.787 264.92 222.787 C 265.15 222.787 265.33 222.967 265.33 223.197 C 265.33 223.427 265.15 223.617 264.92 223.617 C 264.69 223.617 264.5 223.427 264.5 223.197 Z  M 267.86 223.197 C 267.86 222.967 268.05 222.787 268.27 222.787 C 268.5 222.787 268.69 222.967 268.69 223.197 C 268.69 223.427 268.5 223.617 268.27 223.617 C 268.05 223.617 267.86 223.427 267.86 223.197 Z  M 271.21 223.197 C 271.21 222.967 271.4 222.787 271.63 222.787 C 271.86 222.787 272.04 222.967 272.04 223.197 C 272.04 223.427 271.86 223.617 271.63 223.617 C 271.4 223.617 271.21 223.427 271.21 223.197 Z  M 274.57 223.197 C 274.57 222.967 274.76 222.787 274.99 222.787 C 275.22 222.787 275.4 222.967 275.4 223.197 C 275.4 223.427 275.22 223.617 274.99 223.617 C 274.76 223.617 274.57 223.427 274.57 223.197 Z  M 277.93 223.197 C 277.93 222.967 278.11 222.787 278.34 222.787 C 278.57 222.787 278.76 222.967 278.76 223.197 C 278.76 223.427 278.57 223.617 278.34 223.617 C 278.11 223.617 277.93 223.427 277.93 223.197 Z  M 281.28 223.197 C 281.28 222.967 281.47 222.787 281.7 222.787 C 281.93 222.787 282.11 222.967 282.11 223.197 C 282.11 223.427 281.93 223.617 281.7 223.617 C 281.47 223.617 281.28 223.427 281.28 223.197 Z  M 284.64 223.197 C 284.64 222.967 284.82 222.787 285.05 222.787 C 285.28 222.787 285.47 222.967 285.47 223.197 C 285.47 223.427 285.28 223.617 285.05 223.617 C 284.82 223.617 284.64 223.427 284.64 223.197 Z  M 287.99 223.197 C 287.99 222.967 288.18 222.787 288.41 222.787 C 288.64 222.787 288.82 222.967 288.82 223.197 C 288.82 223.427 288.64 223.617 288.41 223.617 C 288.18 223.617 287.99 223.427 287.99 223.197 Z  M 291.35 223.197 C 291.35 222.967 291.54 222.787 291.77 222.787 C 291.99 222.787 292.18 222.967 292.18 223.197 C 292.18 223.427 291.99 223.617 291.77 223.617 C 291.54 223.617 291.35 223.427 291.35 223.197 Z " fill="rgb(254,254,254)"/><path d=" M 254.85 223.617 C 254.74 223.617 254.64 223.567 254.56 223.487 L 254.47 223.357 L 254.44 223.197 C 254.44 223.087 254.48 222.977 254.56 222.907 C 254.67 222.787 254.85 222.747 255.01 222.817 L 255.14 222.907 C 255.22 222.977 255.27 223.087 255.27 223.197 L 255.23 223.357 L 255.14 223.487 L 255.01 223.577 L 254.85 223.617 Z " fill="rgb(254,254,254)"/><path d=" M 298.917 70.529 L 281.996 70.529 L 281.996 67.177 L 298.752 67.177 L 298.917 70.529 Z " fill="rgb(95,142,201)"/><path d=" M 281.996 70.529 L 265.124 70.529 L 264.959 67.177 L 281.996 67.177 L 281.996 70.529 Z " fill="rgb(92,139,199)"/><path d=" M 300.337 99.277 L 268.662 99.277 L 268.254 91.026 C 268.192 89.762 267.223 88.701 266.011 88.476 L 265.124 70.529 L 281.996 70.529 L 298.917 70.529 L 300.337 99.277 Z " fill="rgb(95,141,200)"/><path d=" M 300.955 111.781 L 267.163 111.781 L 266.994 108.367 C 268.184 108.141 269.048 107.081 268.985 105.817 L 268.662 99.277 L 300.337 99.277 L 300.955 111.781 Z " fill="rgb(92,139,199)"/><path d=" M 266.994 108.367 L 266.011 88.476 C 267.223 88.701 268.192 89.762 268.254 91.026 L 268.662 99.277 L 268.985 105.817 C 269.048 107.081 268.184 108.141 266.994 108.367 Z " fill="rgb(66,120,187)"/><path d=" M 267.163 111.781 L 263.262 111.781 L 261.058 67.177 L 264.959 67.177 L 267.163 111.781 Z " fill="rgb(76,128,192)"/><path d=" M 263.262 111.781 L 185.573 111.781 L 183.369 67.177 L 261.058 67.177 L 263.262 111.781 Z " fill="rgb(95,141,200)"/><path d=" M 295.525 183.247 L 295.249 180.328 C 302.338 180.009 309.207 177.141 314.365 171.716 C 317.396 168.527 319.517 164.789 320.744 160.807 L 323.544 161.793 C 322.195 166.17 319.865 170.278 316.534 173.783 C 310.866 179.746 303.314 182.899 295.525 183.247 Z " fill="rgb(44,61,67)"/><path d=" M 323.544 161.793 L 323.544 161.793 L 323.544 161.793 L 320.744 160.807 C 321.484 158.403 321.899 155.911 321.99 153.395 C 322.961 153.074 323.943 152.804 324.936 152.586 C 324.924 155.709 324.462 158.813 323.544 161.793 Z  M 320.498 142.917 C 319.573 140.095 318.226 137.368 316.461 134.836 L 316.461 130.215 C 319.627 133.826 321.915 137.933 323.309 142.236 C 322.363 142.429 321.426 142.656 320.498 142.917 Z " fill="rgb(140,180,223)"/><path d=" M 321.99 153.395 C 322.118 149.886 321.618 146.332 320.498 142.917 C 321.426 142.656 322.363 142.429 323.309 142.236 C 324.404 145.613 324.948 149.112 324.936 152.586 C 323.943 152.804 322.961 153.074 321.99 153.395 Z " fill="rgb(135,177,222)"/><path d=" M 316.461 134.836 C 315.266 133.123 313.879 131.499 312.304 129.998 C 309.086 126.932 305.402 124.682 301.522 123.249 L 301.369 120.144 C 306.018 121.692 310.444 124.286 314.269 127.931 C 315.041 128.667 315.771 129.429 316.461 130.215 L 316.461 134.836 Z " fill="rgb(132,173,219)"/><path d=" M 301.522 123.249 C 300.904 123.021 300.28 122.813 299.653 122.626 L 300.365 119.828 L 300.365 119.828 C 300.701 119.928 301.035 120.033 301.369 120.144 L 301.522 123.249 Z " fill="rgb(80,123,188)"/><path d=" M 270.682 173.783 C 264.149 167.558 260.585 159.432 260.077 151.274 L 262.997 151.235 C 263.459 158.658 266.702 166.05 272.647 171.716 C 279.044 177.811 287.283 180.681 295.249 180.328 L 295.525 183.247 C 286.771 183.636 277.712 180.482 270.682 173.783 Z " fill="rgb(66,120,187)"/><path d=" M 270.2 130.412 L 270.001 126.38 C 275.824 121.083 283.284 118.435 290.874 118.435 C 294.052 118.435 297.251 118.899 300.365 119.828 L 299.653 122.626 L 299.653 122.626 C 296.82 121.781 293.907 121.358 291.016 121.358 C 283.467 121.358 276.062 124.238 270.586 129.998 C 270.456 130.135 270.327 130.273 270.2 130.412 Z " fill="rgb(205,222,242)"/><path d=" M 268.204 132.866 L 267.984 128.396 C 268.126 128.24 268.27 128.085 268.417 127.931 C 268.93 127.391 269.458 126.874 270.001 126.38 L 270.2 130.412 C 269.481 131.2 268.816 132.019 268.204 132.866 Z " fill="rgb(180,207,236)"/><path d=" M 264.638 139.618 L 264.327 133.327 C 265.359 131.591 266.577 129.938 267.984 128.396 L 268.204 132.866 C 266.685 134.97 265.497 137.243 264.638 139.618 Z " fill="rgb(190,213,238)"/><path d=" M 260.077 151.274 C 259.69 145.032 261.092 138.769 264.327 133.327 L 264.638 139.618 C 263.294 143.327 262.752 147.285 262.997 151.235 L 260.077 151.274 L 260.077 151.274 Z " fill="rgb(208,225,243)"/><path d=" M 316.461 158.166 L 316.461 155.883 C 316.632 155.783 316.805 155.685 316.979 155.589 C 316.853 156.457 316.681 157.316 316.461 158.166 Z " fill="rgb(254,254,254)"/><path d=" M 316.461 155.883 L 316.461 145.921 C 317.264 149.108 317.44 152.398 316.979 155.589 C 316.805 155.685 316.632 155.783 316.461 155.883 Z " fill="rgb(250,251,251)"/><path d=" M 303.994 173.29 L 303.851 170.387 C 305.299 166.817 307.471 163.472 310.367 160.575 L 303.002 153.21 L 310.367 160.575 C 312.232 158.711 314.283 157.147 316.461 155.883 L 316.461 158.166 C 315.496 161.888 313.622 165.394 310.821 168.34 C 308.814 170.452 306.496 172.102 303.994 173.29 Z  M 302.999 153.137 L 301.778 128.424 C 304.397 129.612 306.877 131.262 309.094 133.374 C 312.435 136.558 314.759 140.395 316.044 144.454 C 311.212 146.445 306.767 149.378 302.999 153.137 Z " fill="rgb(245,245,244)"/><path d=" M 310.367 160.575 L 303.002 153.21 L 302.999 153.137 C 306.767 149.378 311.212 146.445 316.044 144.454 C 316.198 144.94 316.337 145.429 316.461 145.921 L 316.461 155.883 C 314.283 157.147 312.232 158.711 310.367 160.575 Z " fill="rgb(243,242,241)"/><path d=" M 303.851 170.387 L 303.002 153.21 L 310.367 160.575 C 307.471 163.472 305.299 166.817 303.851 170.387 Z " fill="rgb(240,239,238)"/><path d=" M 291.674 175.499 C 286.013 175.04 280.383 172.654 275.856 168.34 C 272.971 165.591 270.845 162.356 269.491 158.912 L 268.695 142.802 C 269.709 139.357 271.515 136.122 274.128 133.374 C 278.717 128.546 284.926 126.132 291.253 126.132 C 294.813 126.132 298.41 126.896 301.778 128.424 L 302.999 153.137 C 302.987 153.149 302.975 153.161 302.964 153.172 L 303.002 153.21 L 302.964 153.172 C 297.986 158.15 294.402 164.366 292.581 171.156 C 292.195 172.6 291.893 174.051 291.674 175.499 Z  M 302.687 173.862 C 303.001 172.686 303.389 171.524 303.851 170.387 L 303.994 173.29 C 303.564 173.494 303.128 173.685 302.687 173.862 Z " fill="rgb(190,214,239)"/><path d=" M 303.002 153.21 L 302.964 153.172 C 302.975 153.161 302.987 153.149 302.999 153.137 L 303.002 153.21 Z " fill="rgb(190,213,238)"/><path d=" M 293.696 175.581 C 293.023 175.581 292.349 175.554 291.674 175.499 C 291.893 174.051 292.195 172.6 292.581 171.156 C 294.402 164.366 297.986 158.15 302.964 153.172 L 303.002 153.21 L 303.851 170.387 C 303.389 171.524 303.001 172.686 302.687 173.862 C 299.834 175.008 296.779 175.581 293.696 175.581 Z " fill="rgb(189,212,238)"/><path d=" M 269.491 158.912 C 267.443 153.701 267.162 148.012 268.695 142.802 L 269.491 158.912 Z " fill="rgb(173,201,233)"/><path d=" M 232.157 199.223 L 231.671 201.231 C 226.713 199.807 221.315 200.131 216.505 202.554 C 213.679 203.979 211.352 205.979 209.584 208.349 L 207.883 207.045 C 209.825 204.441 212.383 202.241 215.489 200.676 C 220.776 198.013 226.709 197.656 232.157 199.223 Z " fill="rgb(44,61,67)"/><path d=" M 214.138 240.357 C 211.887 238.796 209.864 236.843 208.19 234.537 L 210.777 234.537 C 212.103 236.131 213.622 237.511 215.277 238.657 L 214.138 240.357 Z " fill="rgb(140,181,224)"/><path d=" M 210.777 234.537 L 208.19 234.537 C 207.551 233.657 206.964 232.727 206.434 231.747 C 201.933 223.428 202.808 213.85 207.883 207.045 L 209.584 208.349 C 204.967 214.539 204.171 223.254 208.266 230.824 C 208.992 232.165 209.836 233.405 210.777 234.537 Z " fill="rgb(82,125,190)"/><path d=" M 249.179 228.712 L 247.158 228.063 C 248.558 223.012 248.036 217.337 245.251 212.19 C 242.255 206.651 237.242 202.836 231.671 201.231 L 232.157 199.223 C 238.279 200.986 243.791 205.18 247.083 211.267 C 250.144 216.923 250.718 223.16 249.179 228.712 Z " fill="rgb(208,225,243)"/><path d=" M 249.179 228.712 C 247.587 234.453 243.734 239.463 238.028 242.338 C 230.266 246.248 221.108 245.187 214.138 240.357 L 215.277 238.657 C 221.618 243.053 229.95 244.018 237.012 240.459 C 242.203 237.844 245.71 233.288 247.158 228.063 L 249.179 228.712 Z " fill="rgb(66,120,187)"/><path d=" M 227.647 239.212 C 223.227 239.212 218.84 237.55 215.415 234.537 L 239.391 234.537 C 238.227 235.657 236.876 236.625 235.353 237.392 C 232.903 238.627 230.268 239.212 227.647 239.212 Z " fill="rgb(254,254,254)"/><path d=" M 239.391 234.537 L 215.415 234.537 C 213.775 233.095 212.356 231.343 211.26 229.316 C 206.514 220.543 209.605 209.935 218.165 205.622 C 220.616 204.387 223.25 203.802 225.871 203.802 C 232.407 203.802 238.871 207.436 242.258 213.698 C 246.16 220.91 244.766 229.361 239.391 234.537 Z " fill="rgb(194,215,239)"/><path d=" M 257.005 72.799 L 253.042 72.799 L 243.085 87.636 L 254.508 102.474 L 258.471 102.474 L 247.048 87.636 L 257.005 72.799 Z " fill="rgb(254,254,254)"/><path d=" M 268.849 72.799 L 272.811 72.799 L 284.235 87.636 L 274.278 102.474 L 270.315 102.474 L 280.272 87.636 L 268.849 72.799 Z " fill="rgb(254,254,254)"/><path d=" M 168.85 107.398 L 156.204 107.398 L 155.957 102.408 L 153.667 102.408 L 158.247 102.408 L 157.371 96.876 C 158.21 96.313 158.686 95.354 158.634 94.308 C 158.55 92.607 157.099 91.224 155.405 91.224 L 155.405 91.224 L 155.158 86.228 L 142.511 86.228 C 141.505 86.228 140.718 87.029 140.716 88.017 C 140.718 87.029 141.505 86.228 142.511 86.228 L 167.804 86.228 C 168.843 86.228 169.732 87.082 169.784 88.114 L 170.643 105.512 C 170.694 106.551 169.889 107.398 168.85 107.398 Z " fill="rgb(124,168,217)"/><path d=" M 156.204 107.398 L 143.557 107.398 C 142.518 107.398 141.629 106.551 141.578 105.512 L 140.718 88.114 C 140.717 88.081 140.716 88.049 140.716 88.017 C 140.718 87.029 141.505 86.228 142.511 86.228 L 155.158 86.228 L 155.405 91.224 C 153.757 91.224 152.472 92.522 152.469 94.15 C 152.469 94.202 152.47 94.255 152.473 94.308 C 152.525 95.354 153.095 96.313 153.99 96.876 L 153.667 102.408 L 155.957 102.408 L 156.204 107.398 Z " fill="rgb(117,158,211)"/><path d=" M 165.484 84.98 C 164.56 84.98 163.774 84.231 163.728 83.306 L 163.644 81.604 C 163.412 76.916 159.618 72.876 154.924 72.645 C 154.777 72.638 154.63 72.634 154.484 72.634 C 149.678 72.634 145.961 76.544 146.199 81.351 L 146.295 83.306 C 146.341 84.231 145.629 84.98 144.704 84.98 C 143.78 84.98 142.994 84.231 142.948 83.306 L 142.866 81.647 C 142.543 75.114 147.338 69.543 153.854 69.296 C 154.009 69.29 154.165 69.287 154.319 69.287 C 160.971 69.287 166.65 74.699 166.978 81.351 L 167.075 83.306 C 167.121 84.231 166.408 84.98 165.484 84.98 Z " fill="rgb(124,168,217)"/><path d=" M 127.948 264.401 L 93.589 264.401 L 92.633 245.054 C 93.863 246.257 95.543 247.001 97.389 247.001 L 127.088 247.001 L 127.948 264.401 Z  M 90.576 203.417 L 90.145 194.693 L 90.576 194.693 L 90.576 203.417 Z " fill="rgb(159,194,230)"/><path d=" M 90.576 149.913 L 87.932 149.913 L 87.148 134.046 L 90.576 134.046 L 90.576 149.913 Z " fill="rgb(148,184,225)"/><path d=" M 127.088 247.001 L 97.389 247.001 C 95.543 247.001 93.863 246.257 92.633 245.054 L 90.576 203.417 L 90.576 194.693 L 95.749 194.693 L 97.142 191.805 L 97.142 191.805 C 98.417 191.415 99.632 190.9 100.771 190.268 L 103.949 191.225 L 109.824 185.045 L 108.713 181.918 L 108.713 181.917 C 109.282 180.746 109.738 179.505 110.064 178.21 L 110.065 178.209 L 112.878 176.674 L 112.446 167.933 L 109.48 166.397 C 109.026 165.102 108.447 163.862 107.764 162.689 L 107.763 162.688 L 108.565 159.562 L 102.079 153.381 L 98.997 154.338 L 98.997 154.338 C 97.795 153.705 96.529 153.191 95.215 152.801 L 95.214 152.801 L 93.537 149.913 L 90.576 149.913 L 90.576 134.046 L 121.507 134.046 L 127.088 247.001 Z " fill="rgb(151,186,226)"/><path d=" M 130.384 264.401 L 127.948 264.401 L 127.088 247.001 L 121.507 134.046 L 123.944 134.046 L 130.384 264.401 Z " fill="rgb(66,120,187)"/><path d=" M 134.285 264.401 L 130.384 264.401 L 123.944 134.046 L 127.844 134.046 L 134.285 264.401 Z " fill="rgb(100,147,204)"/><path d=" M 176.183 264.401 L 134.285 264.401 L 127.844 134.046 L 169.742 134.046 L 169.401 127.134 L 127.503 127.134 L 169.401 127.134 L 176.183 264.401 Z " fill="rgb(161,194,230)"/><path d=" M 90.576 188.141 C 90.322 188.133 90.07 188.12 89.819 188.1 L 89.709 185.875 C 89.996 185.901 90.285 185.918 90.576 185.925 L 90.576 188.141 Z  M 88.368 158.731 L 88.258 156.505 C 88.663 156.474 89.074 156.458 89.489 156.458 C 89.854 156.458 90.216 156.47 90.576 156.494 L 90.576 158.71 C 90.252 158.687 89.927 158.676 89.599 158.676 C 89.183 158.676 88.773 158.695 88.368 158.731 Z " fill="rgb(148,184,225)"/><path d=" M 91.055 188.148 C 90.894 188.148 90.735 188.145 90.576 188.141 L 90.576 185.925 C 90.699 185.929 90.822 185.93 90.946 185.93 C 98.46 185.93 104.271 179.817 103.9 172.303 C 103.545 165.117 97.661 159.212 90.576 158.71 L 90.576 156.494 C 98.847 157.052 105.704 163.916 106.119 172.304 C 106.551 181.055 99.804 188.148 91.055 188.148 Z " fill="rgb(151,186,226)"/><path d=" M 87.148 134.046 L 87.148 134.046 L 86.807 127.134 L 87.148 134.046 Z " fill="rgb(167,196,230)"/><path d=" M 90.576 134.046 L 87.148 134.046 L 86.807 127.134 L 90.576 127.134 L 90.576 134.046 Z " fill="rgb(119,164,214)"/><path d=" M 121.507 134.046 L 90.576 134.046 L 90.576 127.134 L 119.387 127.134 C 119.622 128.087 120.35 128.862 121.267 129.185 L 121.507 134.046 Z " fill="rgb(121,165,215)"/><path d=" M 123.944 134.046 L 121.507 134.046 L 121.267 129.185 C 120.35 128.862 119.622 128.087 119.387 127.134 L 123.602 127.134 L 123.944 134.046 Z " fill="rgb(66,120,187)"/><path d=" M 127.844 134.046 L 123.944 134.046 L 123.602 127.134 L 127.503 127.134 L 127.844 134.046 Z " fill="rgb(88,138,198)"/><path d=" M 169.742 134.046 L 127.844 134.046 L 127.503 127.134 L 169.401 127.134 L 169.742 134.046 Z " fill="rgb(127,170,218)"/><path d=" M 176.524 271.313 L 176.183 264.401 L 176.183 264.401 L 176.524 271.313 Z " fill="rgb(180,207,236)"/><path d=" M 128.289 271.313 L 93.93 271.313 L 93.589 264.401 L 127.948 264.401 L 128.289 271.313 Z " fill="rgb(127,171,218)"/><path d=" M 130.726 271.313 L 128.289 271.313 L 127.948 264.401 L 130.384 264.401 L 130.726 271.313 Z " fill="rgb(66,120,187)"/><path d=" M 134.626 271.313 L 130.726 271.313 L 130.384 264.401 L 134.285 264.401 L 134.626 271.313 Z " fill="rgb(88,138,198)"/><path d=" M 176.524 271.313 L 134.626 271.313 L 134.285 264.401 L 176.183 264.401 L 176.524 271.313 Z " fill="rgb(127,170,218)"/><path d=" M 91.055 188.148 C 82.305 188.148 74.861 181.055 74.429 172.304 C 73.996 163.551 80.739 156.458 89.489 156.458 C 98.239 156.458 105.686 163.551 106.119 172.304 C 106.551 181.055 99.804 188.148 91.055 188.148 Z  M 112.446 167.933 L 109.48 166.397 C 109.026 165.102 108.447 163.862 107.764 162.689 L 107.763 162.688 L 108.565 159.562 L 102.079 153.381 L 98.997 154.338 L 98.997 154.338 C 97.795 153.705 96.529 153.191 95.215 152.801 L 95.214 152.801 L 93.537 149.913 L 84.796 149.913 L 83.404 152.801 C 82.129 153.189 80.914 153.706 79.772 154.338 L 79.772 154.338 L 76.596 153.381 L 70.721 159.562 L 71.831 162.688 L 71.831 162.689 C 71.263 163.862 70.807 165.102 70.48 166.397 L 67.667 167.933 L 68.099 176.674 L 71.063 178.209 L 71.064 178.21 C 71.518 179.505 72.097 180.746 72.781 181.917 L 72.782 181.918 L 71.98 185.045 L 78.466 191.225 L 81.548 190.268 C 82.752 190.9 84.017 191.416 85.33 191.804 L 87.008 194.693 L 95.749 194.693 L 97.142 191.805 L 97.142 191.805 C 98.417 191.415 99.632 190.9 100.771 190.268 L 103.949 191.225 L 109.824 185.045 L 108.713 181.918 L 108.713 181.917 C 109.282 180.746 109.738 179.505 110.064 178.21 L 110.065 178.209 L 112.878 176.674 L 112.446 167.933 Z " fill="rgb(66,120,187)"/><path d=" M 89.709 185.875 C 82.74 185.249 76.996 179.401 76.645 172.303 C 76.295 165.205 81.461 159.357 88.368 158.731 L 89.709 185.875 Z " fill="rgb(243,242,241)"/><path d=" M 90.576 185.925 C 90.285 185.918 89.996 185.901 89.709 185.875 L 88.368 158.731 C 88.773 158.695 89.183 158.676 89.599 158.676 C 89.927 158.676 90.252 158.687 90.576 158.71 L 90.576 185.925 Z " fill="rgb(206,223,242)"/><path d=" M 90.946 185.93 C 90.822 185.93 90.699 185.929 90.576 185.925 L 90.576 158.71 C 97.661 159.212 103.545 165.117 103.9 172.303 C 104.271 179.817 98.46 185.93 90.946 185.93 Z " fill="rgb(208,224,243)"/><path d=" M 177.383 181.451 L 130.493 181.451 C 128.518 181.451 126.996 183.052 127.093 185.027 L 128.282 209.099 C 128.38 211.074 130.06 212.675 132.036 212.675 L 160.224 212.675 L 160.739 223.112 L 170.66 212.675 L 178.926 212.675 C 180.901 212.675 182.423 211.074 182.326 209.099 L 181.136 185.027 C 181.039 183.052 179.359 181.451 177.383 181.451 Z " fill="rgb(66,120,187)"/><path d=" M 114.069 221.509 L 146.105 221.509 C 147.454 221.509 148.602 222.603 148.669 223.953 L 149.481 240.398 C 149.548 241.748 148.508 242.841 147.159 242.841 L 127.901 242.841 L 128.253 249.972 L 120.771 242.841 L 115.123 242.841 C 113.774 242.841 112.626 241.748 112.559 240.398 L 111.747 223.953 C 111.68 222.603 112.72 221.509 114.069 221.509 Z " fill="rgb(254,254,254)"/><path d=" M 391.183 162.731 L 386.453 162.516 L 388.589 171.494 C 388.589 171.494 391.23 169.748 393.174 167.45 C 393.986 166.49 393.885 165.058 392.933 164.237 L 391.183 162.731 Z " fill="rgb(243,137,130)"/><path d=" M 380.961 167.364 L 383.085 174.692 L 388.589 171.494 L 386.453 162.516 L 380.961 167.364 Z " fill="rgb(243,137,130)"/><path d=" M 355.274 116.854 L 352.989 119.479 C 352.214 120.38 351.449 121.296 350.7 122.223 C 349.201 124.078 347.717 125.94 346.318 127.846 C 343.486 131.633 340.917 135.562 338.919 139.537 C 338.674 140.033 338.468 140.529 338.238 141.025 L 337.905 141.755 L 337.872 141.73 C 337.785 141.789 337.746 142.437 337.924 143.22 C 338.285 144.829 339.244 146.868 340.356 148.813 C 342.622 152.74 345.553 156.734 348.48 160.504 L 344.707 164.527 C 340.487 161.369 336.703 157.932 333.275 153.676 C 331.593 151.512 329.96 149.227 328.792 146.081 C 328.24 144.497 327.726 142.625 328.024 140.209 C 328.093 139.617 328.242 138.99 328.439 138.373 L 328.797 137.368 C 329.038 136.711 329.266 136.039 329.523 135.396 C 331.624 130.282 334.331 125.7 337.302 121.397 C 338.798 119.248 340.34 117.151 341.991 115.145 C 342.81 114.137 343.643 113.142 344.495 112.157 C 345.354 111.152 346.19 110.237 347.182 109.205 L 355.274 116.854 Z " fill="rgb(243,137,130)"/><path d=" M 354.536 163.672 L 350.27 172.099 L 346.103 168.513 L 349.523 162.516 L 354.536 163.672 Z " fill="rgb(243,137,130)"/><path d=" M 396.382 108.777 C 399.006 113.425 401.458 118.1 403.812 122.868 C 406.168 127.63 408.41 132.456 410.509 137.407 L 410.678 137.836 L 410.871 138.391 C 410.99 138.76 411.113 139.149 411.152 139.482 C 411.207 139.829 411.253 140.177 411.288 140.524 C 411.326 140.877 411.3 141.153 411.3 141.471 C 411.3 142.115 411.218 142.649 411.127 143.178 C 411.049 143.741 410.9 144.164 410.773 144.647 C 410.215 146.466 409.47 147.894 408.698 149.234 C 407.925 150.569 407.086 151.775 406.214 152.913 C 405.344 154.055 404.458 155.15 403.536 156.192 C 399.845 160.37 395.887 163.985 391.572 167.371 L 387.753 163.391 C 390.948 159.394 394.128 155.228 396.889 151.079 C 398.269 149.015 399.529 146.88 400.443 144.88 C 400.892 143.892 401.242 142.905 401.362 142.178 C 401.375 142.018 401.433 141.811 401.411 141.715 C 401.416 141.592 401.426 141.474 401.396 141.458 L 401.385 141.418 L 401.372 141.485 L 401.387 141.629 L 401.417 141.717 C 401.43 141.745 401.465 141.8 401.404 141.689 C 399.006 137.114 396.498 132.536 394.016 127.941 C 391.519 123.36 389.034 118.73 386.617 114.128 L 396.382 108.777 Z " fill="rgb(243,137,130)"/><path d=" M 358.555 80.364 C 358.678 80.944 358.473 81.491 358.098 81.586 C 357.722 81.681 357.318 81.287 357.195 80.707 C 357.072 80.127 357.277 79.58 357.652 79.485 C 358.028 79.39 358.432 79.783 358.555 80.364 Z " fill="rgb(44,61,67)"/><path d=" M 358.526 81.478 C 358.526 81.478 357.929 85.154 356.833 87.132 C 358.052 87.833 359.687 86.959 359.687 86.959 L 358.526 81.478 Z " fill="rgb(240,104,104)"/><path d=" M 357.249 74.479 L 357.183 74.481 C 356.602 74.524 356.057 75.125 355.687 76.132 C 355.287 77.218 355.126 78.642 355.235 80.14 C 355.344 81.638 355.708 83.023 356.259 84.041 C 356.771 84.984 357.403 85.504 357.978 85.459 C 359.249 85.367 360.141 82.775 359.925 79.8 C 359.816 78.302 359.453 76.917 358.901 75.899 C 358.409 74.992 357.811 74.479 357.249 74.479 Z  M 357.908 85.961 C 357.148 85.961 356.411 85.369 355.82 84.279 C 355.235 83.201 354.85 81.743 354.736 80.176 C 354.623 78.609 354.793 77.111 355.217 75.959 C 355.665 74.742 356.35 74.04 357.146 73.983 C 357.938 73.926 358.722 74.521 359.34 75.661 C 359.925 76.74 360.31 78.197 360.424 79.764 C 360.667 83.121 359.608 85.842 358.014 85.957 L 357.908 85.961 Z " fill="rgb(44,61,67)"/><path d=" M 357.02 76.841 L 357.217 76.78 C 357.262 76.749 358.315 76.044 359.705 76.616 C 359.881 76.689 360.086 76.604 360.159 76.427 C 360.233 76.249 360.148 76.046 359.97 75.972 C 358.218 75.251 356.875 76.17 356.819 76.209 C 356.662 76.319 356.624 76.535 356.734 76.692 C 356.801 76.789 356.909 76.841 357.02 76.841 Z " fill="rgb(44,61,67)"/><path d=" M 378.524 84.441 C 378.329 90.485 376.086 97.794 379.708 101.38 C 379.708 101.38 378.028 106.832 368.042 106.832 C 357.061 106.832 363.005 101.381 363.005 101.381 C 369.053 99.949 369.07 95.503 368.187 91.327 L 378.524 84.441 Z " fill="rgb(243,137,130)"/><path d=" M 382.283 103.252 C 383.136 101.526 384.015 98.874 382.246 98.256 C 380.3 97.575 370.399 95.853 362.874 98.242 C 364.232 101.017 362.973 103.613 362.973 103.613 L 382.283 103.252 Z " fill="rgb(44,61,67)"/><path d=" M 394.591 352.761 L 394.39 352.78 C 394.23 352.814 394.116 352.894 394.041 353.022 C 393.871 353.311 393.959 353.431 393.988 353.47 C 394.291 353.878 395.792 353.883 396.894 353.697 C 396.278 353.308 395.258 352.761 394.591 352.761 Z  M 395.459 354.16 C 394.707 354.16 393.981 354.045 393.708 353.677 C 393.592 353.52 393.504 353.249 393.741 352.846 C 393.867 352.632 394.061 352.495 394.317 352.44 C 395.392 352.208 397.357 353.584 397.44 353.643 L 397.511 353.818 L 397.38 353.954 C 397.001 354.044 396.217 354.16 395.459 354.16 Z " fill="rgb(254,254,254)"/><path d=" M 395.972 350.98 L 395.893 350.985 C 395.655 351.015 395.633 351.128 395.624 351.177 C 395.528 351.664 396.417 352.873 397.139 353.439 C 397.079 352.825 396.894 351.583 396.365 351.133 C 396.244 351.031 396.115 350.98 395.972 350.98 Z  M 397.34 353.959 L 397.255 353.937 C 396.525 353.531 395.122 351.933 395.282 351.11 C 395.312 350.957 395.425 350.692 395.851 350.64 C 396.127 350.607 396.373 350.684 396.59 350.868 C 397.417 351.571 397.51 353.688 397.514 353.778 L 397.431 353.933 L 397.34 353.959 Z " fill="rgb(254,254,254)"/><path d=" M 350.216 352.739 C 349.906 352.739 349.663 352.821 349.539 353.024 C 349.39 353.268 349.462 353.372 349.489 353.411 C 349.808 353.866 351.669 353.888 353.047 353.695 C 352.266 353.287 351.019 352.739 350.216 352.739 Z  M 351.346 354.161 C 350.404 354.161 349.498 354.032 349.204 353.61 C 349.1 353.46 349.021 353.205 349.242 352.843 C 350.027 351.552 353.289 353.418 353.658 353.635 L 353.741 353.814 L 353.604 353.955 C 353.133 354.048 352.224 354.161 351.346 354.161 Z " fill="rgb(254,254,254)"/><path d=" M 351.893 350.98 L 351.788 350.986 C 351.462 351.019 351.439 351.152 351.433 351.196 C 351.347 351.71 352.481 352.939 353.365 353.477 C 353.294 352.905 353.081 351.714 352.487 351.208 C 352.309 351.055 352.113 350.98 351.893 350.98 Z  M 353.57 353.959 L 353.498 353.943 C 352.618 353.541 350.948 351.99 351.089 351.139 C 351.122 350.939 351.264 350.689 351.752 350.64 C 352.11 350.602 352.435 350.705 352.713 350.943 C 353.618 351.715 353.739 353.691 353.744 353.775 L 353.668 353.928 L 353.57 353.959 Z " fill="rgb(254,254,254)"/><path d=" M 361.648 353.784 L 354.302 353.784 L 354.227 336.772 L 361.573 336.772 L 361.648 353.784 Z " fill="rgb(243,137,130)"/><path d=" M 405.756 353.784 L 398.41 353.784 L 395.374 336.772 L 402.721 336.772 L 405.756 353.784 Z " fill="rgb(243,137,130)"/><path d=" M 397.921 352.934 L 406.174 352.934 C 406.475 352.934 406.727 353.142 406.78 353.436 L 407.979 359.965 C 408.104 360.643 407.547 361.284 406.853 361.272 C 403.974 361.222 402.581 361.053 398.951 361.053 C 396.718 361.053 392.109 361.285 389.025 361.285 C 386.009 361.285 385.657 358.236 386.93 357.96 C 392.638 356.722 394.836 355.014 396.711 353.386 C 397.049 353.092 397.482 352.934 397.921 352.934 Z " fill="rgb(44,61,67)"/><path d=" M 354.383 352.934 L 362.406 352.934 C 362.706 352.934 362.958 353.142 363.012 353.436 L 364.211 359.965 C 364.335 360.642 363.796 361.284 363.103 361.272 C 360.211 361.223 356.036 361.053 352.399 361.053 C 348.145 361.053 344.463 361.285 339.476 361.285 C 336.46 361.285 335.74 358.236 337.013 357.96 C 342.809 356.703 347.507 356.568 352.591 353.506 C 353.144 353.173 353.749 352.934 354.383 352.934 Z " fill="rgb(44,61,67)"/><path d=" M 393.725 103.041 C 400.549 104.62 407.721 123.392 407.721 123.392 L 393.526 132.87 C 393.526 132.87 388.57 125.541 384.992 117.341 C 381.243 108.75 386.747 101.427 393.725 103.041 Z " fill="rgb(66,120,187)"/><path d=" M 393.526 132.87 C 393.526 132.87 391.912 130.483 389.861 126.909 C 389.861 126.906 389.861 126.906 389.862 126.903 C 391.884 130.422 393.478 132.793 393.528 132.868 L 393.526 132.87 Z  M 393.937 132.595 L 394.197 132.42 L 390.458 121.327 C 391.186 115.348 392.231 109.17 393.721 103.04 C 393.722 103.04 393.723 103.041 393.725 103.041 C 400.549 104.62 407.721 123.392 407.721 123.392 L 404.968 125.23 L 395.846 131.321 L 393.937 132.595 Z  M 393.599 103.013 C 393.508 102.995 393.368 102.968 393.184 102.933 C 393.322 102.956 393.46 102.983 393.599 103.013 Z " fill="rgb(109,154,208)"/><path d=" M 393.53 132.87 C 393.53 132.87 393.529 132.87 393.528 132.868 L 393.937 132.595 L 393.53 132.87 Z " fill="rgb(191,193,193)"/><path d=" M 393.528 132.868 C 393.478 132.793 391.884 130.422 389.862 126.903 C 390.032 125.07 390.229 123.207 390.458 121.327 L 394.197 132.42 L 393.937 132.595 L 393.528 132.868 Z " fill="rgb(85,133,196)"/><path d=" M 347.894 135.857 C 347.948 144.057 348.444 154.257 349.665 166.917 L 388.965 166.917 C 389.468 160.887 386.814 131.457 393.721 103.037 C 393.721 103.037 387.043 101.687 380.635 101.377 C 375.625 101.137 368.361 100.977 363.935 101.377 C 358.095 101.907 352.557 103.417 352.557 103.417 C 352.557 103.417 349.196 107.057 348.177 124.127 C 347.977 127.497 347.867 131.377 347.894 135.857 Z " fill="rgb(66,120,187)"/><path d=" M 388.965 166.917 L 387.5 166.917 L 381.467 166.917 L 368.718 166.917 L 357.15 166.917 L 352.893 166.917 L 349.665 166.917 C 349.533 165.555 349.41 164.221 349.295 162.915 C 348.342 152.085 347.942 143.175 347.894 135.857 C 349.398 133.112 351.676 128.62 352.995 124.434 C 356.69 119.581 360.276 113.973 360.282 110.484 C 360.282 110.34 360.276 110.2 360.264 110.064 C 359.875 105.7 357.246 103.339 353.709 103.339 C 353.334 103.339 352.948 103.366 352.554 103.42 C 352.556 103.418 352.557 103.417 352.557 103.417 C 352.557 103.417 358.095 101.907 363.935 101.377 C 365.883 101.201 368.381 101.133 370.994 101.133 C 374.318 101.133 377.83 101.243 380.635 101.377 C 387.043 101.687 393.721 103.037 393.721 103.037 C 392.231 109.169 391.186 115.347 390.458 121.327 C 390.229 123.207 390.032 125.07 389.862 126.903 C 389.861 126.906 389.861 126.906 389.861 126.909 C 389.061 135.54 388.867 143.57 388.867 150.2 C 388.867 156.374 389.034 161.335 389.034 164.443 C 389.034 164.538 389.034 164.632 389.033 164.725 C 389.03 165.635 389.01 166.371 388.965 166.917 Z " fill="rgb(109,154,208)"/><path d=" M 347.894 135.857 L 347.894 135.857 C 347.891 135.402 347.89 134.953 347.89 134.511 C 347.89 133.168 347.903 131.882 347.926 130.649 C 349.376 128.976 351.198 126.794 352.995 124.434 C 351.676 128.62 349.398 133.112 347.894 135.857 Z " fill="rgb(85,133,196)"/><path d=" M 360.264 110.064 C 360.884 117.031 345.014 133.902 345.014 133.902 L 332.292 123.541 C 332.292 123.541 337.523 114.477 344.182 108.037 C 351.619 100.846 359.565 102.217 360.264 110.064 Z " fill="rgb(66,120,187)"/><path d=" M 345.014 133.902 L 343.124 132.364 L 334.644 125.457 L 332.292 123.541 C 332.292 123.541 337.523 114.477 344.182 108.037 C 347.483 104.845 350.885 103.339 353.709 103.339 C 357.246 103.339 359.875 105.7 360.264 110.064 C 360.276 110.2 360.282 110.34 360.282 110.484 C 360.276 113.973 356.69 119.581 352.995 124.434 C 351.198 126.794 349.376 128.976 347.926 130.649 C 346.207 132.634 345.014 133.902 345.014 133.902 Z " fill="rgb(109,154,208)"/><path d=" M 361.615 345.546 L 361.612 345.546 L 361.604 343.847 L 361.608 343.847 L 361.615 345.546 Z " fill="rgb(195,197,197)"/><path d=" M 361.612 345.546 L 354.266 345.546 L 354.258 343.847 L 361.604 343.847 L 361.612 345.546 Z " fill="rgb(231,121,108)"/><path d=" M 404.292 345.546 L 404.286 345.546 L 403.983 343.847 L 403.988 343.847 L 404.292 345.546 Z " fill="rgb(195,197,197)"/><path d=" M 404.286 345.546 L 396.942 345.546 L 396.639 343.847 L 403.983 343.847 L 404.286 345.546 Z " fill="rgb(231,121,108)"/><path d=" M 377.456 74.295 C 378.533 81.529 379.526 85.694 376.737 90.251 C 372.542 97.105 363.141 96.042 359.951 89.356 C 357.08 83.337 355.802 72.518 362.108 67.939 C 368.32 63.427 376.38 67.061 377.456 74.295 Z " fill="rgb(243,137,130)"/><path d=" M 365.17 72.313 C 342.059 71.758 360.968 57.77 360.968 57.77 C 357.174 64.436 368.064 63.825 370.806 60.825 C 374.154 57.161 380.19 62.27 379.708 66.27 C 383.225 65.825 386.024 68.436 384.69 76.841 C 383.357 85.246 380.635 87.603 379.19 89.659 C 377.746 91.714 377.871 89.756 373.073 90.651 C 369.774 91.266 364.236 84.148 363.635 79.992 C 362.968 75.381 365.17 72.313 365.17 72.313 Z " fill="rgb(44,61,67)"/><path d=" M 377.061 67.492 C 377.061 67.492 383.093 64.992 379.023 58.714 C 384.617 61.603 383.783 66.881 377.061 67.492 Z " fill="rgb(44,61,67)"/><path d=" M 368.374 78.771 C 368.37 80.697 367.596 82.581 366.609 83.859 C 365.124 85.78 363.408 84.831 363.004 82.698 C 362.641 80.777 362.975 77.464 364.858 76.305 C 366.713 75.163 368.378 76.568 368.374 78.771 Z " fill="rgb(243,137,130)"/><path d=" M 363.606 166.917 C 363.606 166.917 369.776 223.059 373.54 244.092 C 377.663 267.125 393.584 343.847 393.584 343.847 L 407.039 343.847 C 407.039 343.847 397.478 268.985 395.499 246.18 C 393.35 221.43 388.961 166.917 388.961 166.917 L 363.606 166.917 Z " fill="rgb(44,61,67)"/><path d=" M 391.626 338.89 L 392.816 344.057 L 407.955 344.057 L 407.855 339.446 L 391.626 338.89 Z " fill="rgb(66,120,187)"/><path d=" M 373.388 243.25 C 372.506 238.187 371.502 231.313 370.479 223.75 L 370.479 223.75 C 371.501 231.304 372.506 238.172 373.389 243.236 C 373.389 243.241 373.388 243.246 373.388 243.25 Z " fill="rgb(195,197,197)"/><path d=" M 373.389 243.236 C 372.506 238.172 371.501 231.304 370.479 223.75 C 371.296 213.693 372.235 202.873 373.078 193.399 C 376.55 204.98 374.816 229.159 373.389 243.236 Z " fill="rgb(40,52,58)"/><path d=" M 349.667 166.917 C 349.667 166.917 346.535 221.844 346.469 244.247 C 346.4 267.549 351.594 343.847 351.594 343.847 L 364.039 343.847 C 364.039 343.847 367.389 268.911 368.826 246.025 C 370.393 221.077 375.496 166.917 375.496 166.917 L 349.667 166.917 Z " fill="rgb(44,61,67)"/><path d=" M 346.66 159.862 L 350.151 160.145 C 351.364 160.243 352.179 161.433 351.832 162.599 L 350.388 167.446 C 349.872 169.179 347.76 169.861 346.352 168.727 C 344.967 167.61 343.182 164.914 342.617 162.516 L 346.66 159.862 Z " fill="rgb(243,137,130)"/><path d=" M 354.536 334.908 L 354.411 334.791 C 353.033 313.674 349.833 262.578 349.887 244.247 C 349.943 225.496 352.169 183.546 352.85 171.136 L 352.982 171.018 L 353.1 171.15 C 352.419 183.558 350.192 225.502 350.137 244.247 C 350.083 262.571 353.282 313.66 354.66 334.775 L 354.544 334.908 L 354.536 334.908 Z " fill="rgb(80,94,100)"/><path d=" M 349.39 338.89 L 349.893 344.057 L 365.031 344.057 L 365.619 339.446 L 349.39 338.89 Z " fill="rgb(66,120,187)"/></g></g></svg>